solid Cashbox Drawer
facet normal 1.852003193455825e-15 1.0 1.194874849856556e-15
  outer loop
    vertex 0.7534750463617365 0.12500000000000355 1.625
    vertex 3.6284750463617277 0.12499999999999645 0.125
    vertex 0.7534750463617365 0.12500000000000355 0.125
  endloop
endfacet
facet normal 1.852003193455825e-15 1.0 1.194874849856556e-15
  outer loop
    vertex 3.6284750463617277 0.12499999999999645 0.125
    vertex 0.7534750463617365 0.12500000000000355 1.625
    vertex 3.6284750463617277 0.12499999999999645 1.625
  endloop
endfacet
facet normal -1.0 -1.8041124150158794e-16 0.0
  outer loop
    vertex 3.6284750463617135 6.437499999999991 1.625
    vertex 3.6284750463617277 0.12499999999999645 0.125
    vertex 3.6284750463617277 0.12499999999999645 1.625
  endloop
endfacet
facet normal -1.0 -1.8041124150158794e-16 0.0
  outer loop
    vertex 3.6284750463617277 0.12499999999999645 0.125
    vertex 3.6284750463617135 6.437499999999991 1.625
    vertex 3.6284750463617135 6.437499999999991 0.125
  endloop
endfacet
facet normal 0.0 0.0 1.0
  outer loop
    vertex 0.6284750463617311 0.0 1.625
    vertex 0.7534750463617365 0.12500000000000355 1.625
    vertex 0.7534750463617294 6.437500000000016 1.625
  endloop
endfacet
facet normal 0.0 0.0 1.0
  outer loop
    vertex 0.7534750463617365 0.12500000000000355 1.625
    vertex 0.6284750463617311 0.0 1.625
    vertex 3.753475046361733 3.552713678800501e-15 1.625
  endloop
endfacet
facet normal 0.0 0.0 1.0
  outer loop
    vertex 0.7534750463617365 0.12500000000000355 1.625
    vertex 3.753475046361733 3.552713678800501e-15 1.625
    vertex 3.6284750463617277 0.12499999999999645 1.625
  endloop
endfacet
facet normal 0.0 0.0 1.0
  outer loop
    vertex 3.6284750463617277 0.12499999999999645 1.625
    vertex 3.753475046361733 3.552713678800501e-15 1.625
    vertex 3.7534750463617224 6.437500000000002 1.625
  endloop
endfacet
facet normal 0.0 0.0 1.0
  outer loop
    vertex 0.5659750463617347 6.437500000000012 1.625
    vertex 3.815975046361733 6.562500000000044 1.625
    vertex 0.5659750463617276 6.562500000000002 1.625
  endloop
endfacet
facet normal 0.0 0.0 1.0
  outer loop
    vertex 3.815975046361733 6.562500000000044 1.625
    vertex 0.5659750463617347 6.437500000000012 1.625
    vertex 0.6284750463617276 6.437500000000009 1.625
  endloop
endfacet
facet normal 0.0 0.0 1.0
  outer loop
    vertex 3.815975046361733 6.562500000000044 1.625
    vertex 0.6284750463617276 6.437500000000009 1.625
    vertex 0.7534750463617294 6.437500000000016 1.625
  endloop
endfacet
facet normal 0.0 0.0 1.0
  outer loop
    vertex 0.7534750463617294 6.437500000000016 1.625
    vertex 0.6284750463617276 6.437500000000009 1.625
    vertex 0.6284750463617311 0.0 1.625
  endloop
endfacet
facet normal 0.0 0.0 1.0
  outer loop
    vertex 3.815975046361733 6.562500000000044 1.625
    vertex 0.7534750463617294 6.437500000000016 1.625
    vertex 3.6284750463617135 6.437499999999991 1.625
  endloop
endfacet
facet normal 0.0 0.0 1.0
  outer loop
    vertex 3.815975046361733 6.562500000000044 1.625
    vertex 3.6284750463617135 6.437499999999991 1.625
    vertex 3.7534750463617224 6.437500000000002 1.625
  endloop
endfacet
facet normal 0.0 0.0 1.0
  outer loop
    vertex 3.7534750463617224 6.437500000000002 1.625
    vertex 3.6284750463617135 6.437499999999991 1.625
    vertex 3.6284750463617277 0.12499999999999645 1.625
  endloop
endfacet
facet normal 0.0 0.0 1.0
  outer loop
    vertex 3.815975046361733 6.562500000000044 1.625
    vertex 3.7534750463617224 6.437500000000002 1.625
    vertex 3.8159750463617224 6.437499999999998 1.625
  endloop
endfacet
facet normal -3.150257832373881e-15 -1.0 0.0
  outer loop
    vertex 1.1284750463617366 7.0000000000000195 0.9375
    vertex 0.5659750463617294 7.000000000000016 0.3125
    vertex 1.1284750463617366 7.0000000000000195 0.3125
  endloop
endfacet
facet normal -3.150257832373881e-15 -1.0 0.0
  outer loop
    vertex 0.5659750463617294 7.000000000000016 0.3125
    vertex 1.1284750463617366 7.0000000000000195 0.9375
    vertex 0.5659750463617294 7.000000000000016 0.9375
  endloop
endfacet
facet normal -1.0 -7.799316747991725e-15 0.0
  outer loop
    vertex 1.1284750463617366 7.0000000000000195 0.9375
    vertex 1.128475046361733 6.562499999999995 0.3125
    vertex 1.128475046361733 6.562499999999995 0.9375
  endloop
endfacet
facet normal -1.0 -7.799316747991725e-15 0.0
  outer loop
    vertex 1.128475046361733 6.562499999999995 0.3125
    vertex 1.1284750463617366 7.0000000000000195 0.9375
    vertex 1.1284750463617366 7.0000000000000195 0.3125
  endloop
endfacet
facet normal 1.1379786002407853e-15 1.0 0.0
  outer loop
    vertex 0.565975046361724 7.124999999999995 0.9375
    vertex 1.253475046361726 7.124999999999998 0.0
    vertex 0.565975046361724 7.124999999999995 0.0
  endloop
endfacet
facet normal 1.1379786002407853e-15 1.0 0.0
  outer loop
    vertex 1.253475046361726 7.124999999999998 0.0
    vertex 0.565975046361724 7.124999999999995 0.9375
    vertex 1.253475046361726 7.124999999999998 0.9375
  endloop
endfacet
facet normal 0.7071067811865417 0.7071067811865535 0.0
  outer loop
    vertex 1.253475046361726 7.124999999999998 0.9375
    vertex 1.815975046361726 6.562499999999995 0.0
    vertex 1.253475046361726 7.124999999999998 0.0
  endloop
endfacet
facet normal 0.7071067811865417 0.7071067811865535 0.0
  outer loop
    vertex 1.815975046361726 6.562499999999995 0.0
    vertex 1.253475046361726 7.124999999999998 0.9375
    vertex 1.815975046361726 6.562499999999995 0.9375
  endloop
endfacet
facet normal 0.0 0.0 1.0
  outer loop
    vertex 1.815975046361726 6.562499999999995 0.9375
    vertex 1.1284750463617366 7.0000000000000195 0.9375
    vertex 1.128475046361733 6.562499999999995 0.9375
  endloop
endfacet
facet normal 0.0 0.0 1.0
  outer loop
    vertex 1.1284750463617366 7.0000000000000195 0.9375
    vertex 1.815975046361726 6.562499999999995 0.9375
    vertex 1.253475046361726 7.124999999999998 0.9375
  endloop
endfacet
facet normal 0.0 0.0 1.0
  outer loop
    vertex 0.5659750463617294 7.000000000000016 0.9375
    vertex 1.253475046361726 7.124999999999998 0.9375
    vertex 0.565975046361724 7.124999999999995 0.9375
  endloop
endfacet
facet normal 0.0 0.0 1.0
  outer loop
    vertex 1.253475046361726 7.124999999999998 0.9375
    vertex 0.5659750463617294 7.000000000000016 0.9375
    vertex 1.1284750463617366 7.0000000000000195 0.9375
  endloop
endfacet
facet normal 1.0 1.6556335590526609e-15 0.0
  outer loop
    vertex 3.7534750463617224 6.437500000000002 0.0
    vertex 3.753475046361733 3.552713678800501e-15 1.625
    vertex 3.753475046361733 3.552713678800501e-15 0.0
  endloop
endfacet
facet normal 1.0 1.6556335590526609e-15 0.0
  outer loop
    vertex 3.753475046361733 3.552713678800501e-15 1.625
    vertex 3.7534750463617224 6.437500000000002 0.0
    vertex 3.7534750463617224 6.437500000000002 1.625
  endloop
endfacet
facet normal 1.0 8.25332743244316e-16 1.336733389212381e-15
  outer loop
    vertex 0.7534750463617294 6.437500000000016 0.125
    vertex 0.7534750463617365 0.12500000000000355 1.625
    vertex 0.7534750463617365 0.12500000000000355 0.125
  endloop
endfacet
facet normal 1.0 8.25332743244316e-16 1.336733389212381e-15
  outer loop
    vertex 0.7534750463617365 0.12500000000000355 1.625
    vertex 0.7534750463617294 6.437500000000016 0.125
    vertex 0.7534750463617294 6.437500000000016 1.625
  endloop
endfacet
facet normal 0.0 0.0 -1.0
  outer loop
    vertex 3.815975046361733 6.562500000000044 0.0
    vertex 3.7534750463617224 6.437500000000002 0.0
    vertex 1.815975046361726 6.562499999999995 0.0
  endloop
endfacet
facet normal 0.0 0.0 -1.0
  outer loop
    vertex 3.7534750463617224 6.437500000000002 0.0
    vertex 3.815975046361733 6.562500000000044 0.0
    vertex 3.8159750463617224 6.437499999999998 0.0
  endloop
endfacet
facet normal 0.0 0.0 -1.0
  outer loop
    vertex 1.253475046361726 7.124999999999998 0.0
    vertex 0.5659750463617347 6.437500000000012 0.0
    vertex 0.565975046361724 7.124999999999995 0.0
  endloop
endfacet
facet normal 0.0 0.0 -1.0
  outer loop
    vertex 0.5659750463617347 6.437500000000012 0.0
    vertex 1.253475046361726 7.124999999999998 0.0
    vertex 0.6284750463617276 6.437500000000009 0.0
  endloop
endfacet
facet normal 0.0 0.0 -1.0
  outer loop
    vertex 0.6284750463617276 6.437500000000009 0.0
    vertex 1.253475046361726 7.124999999999998 0.0
    vertex 0.6284750463617311 0.0 0.0
  endloop
endfacet
facet normal 0.0 0.0 -1.0
  outer loop
    vertex 0.6284750463617311 0.0 0.0
    vertex 1.253475046361726 7.124999999999998 0.0
    vertex 3.753475046361733 3.552713678800501e-15 0.0
  endloop
endfacet
facet normal 0.0 0.0 -1.0
  outer loop
    vertex 3.753475046361733 3.552713678800501e-15 0.0
    vertex 1.253475046361726 7.124999999999998 0.0
    vertex 1.815975046361726 6.562499999999995 0.0
  endloop
endfacet
facet normal 0.0 0.0 -1.0
  outer loop
    vertex 3.753475046361733 3.552713678800501e-15 0.0
    vertex 1.815975046361726 6.562499999999995 0.0
    vertex 3.7534750463617224 6.437500000000002 0.0
  endloop
endfacet
facet normal 0.0 0.0 1.0
  outer loop
    vertex 0.7534750463617365 0.12500000000000355 0.125
    vertex 3.6284750463617135 6.437499999999991 0.125
    vertex 0.7534750463617294 6.437500000000016 0.125
  endloop
endfacet
facet normal 0.0 0.0 1.0
  outer loop
    vertex 3.6284750463617135 6.437499999999991 0.125
    vertex 0.7534750463617365 0.12500000000000355 0.125
    vertex 3.6284750463617277 0.12499999999999645 0.125
  endloop
endfacet
facet normal 3.289035710452027e-15 -1.0 0.0
  outer loop
    vertex 3.753475046361733 3.552713678800501e-15 1.625
    vertex 0.6284750463617311 0.0 0.0
    vertex 3.753475046361733 3.552713678800501e-15 0.0
  endloop
endfacet
facet normal 3.289035710452027e-15 -1.0 0.0
  outer loop
    vertex 0.6284750463617311 0.0 0.0
    vertex 3.753475046361733 3.552713678800501e-15 1.625
    vertex 0.6284750463617311 0.0 1.625
  endloop
endfacet
facet normal -1.0 -1.8041124150158794e-16 0.0
  outer loop
    vertex 0.6284750463617276 6.437500000000009 1.625
    vertex 0.6284750463617311 0.0 0.0
    vertex 0.6284750463617311 0.0 1.625
  endloop
endfacet
facet normal -1.0 -1.8041124150158794e-16 0.0
  outer loop
    vertex 0.6284750463617311 0.0 0.0
    vertex 0.6284750463617276 6.437500000000009 1.625
    vertex 0.6284750463617276 6.437500000000009 0.0
  endloop
endfacet
facet normal 1.0 -8.526512829118052e-14 0.0
  outer loop
    vertex 3.815975046361733 6.562500000000044 0.0
    vertex 3.8159750463617224 6.437499999999998 1.625
    vertex 3.8159750463617224 6.437499999999998 0.0
  endloop
endfacet
facet normal 1.0 -8.526512829118052e-14 0.0
  outer loop
    vertex 3.8159750463617224 6.437499999999998 1.625
    vertex 3.815975046361733 6.562500000000044 0.0
    vertex 3.815975046361733 6.562500000000044 1.625
  endloop
endfacet
facet normal -2.067790383364354e-15 -1.0 0.0
  outer loop
    vertex 3.6284750463617135 6.437499999999991 1.625
    vertex 0.7534750463617294 6.437500000000016 0.125
    vertex 3.6284750463617135 6.437499999999991 0.125
  endloop
endfacet
facet normal -2.067790383364354e-15 -1.0 0.0
  outer loop
    vertex 0.7534750463617294 6.437500000000016 0.125
    vertex 3.6284750463617135 6.437499999999991 1.625
    vertex 0.7534750463617294 6.437500000000016 1.625
  endloop
endfacet
facet normal -1.0 -1.8041124150158794e-16 0.0
  outer loop
    vertex 0.565975046361724 7.124999999999995 0.9375
    vertex 0.5659750463617294 7.000000000000016 0.3125
    vertex 0.5659750463617294 7.000000000000016 0.9375
  endloop
endfacet
facet normal -1.0 -1.8041124150158794e-16 0.0
  outer loop
    vertex 0.5659750463617276 6.562500000000002 1.625
    vertex 0.5659750463617347 6.437500000000012 0.0
    vertex 0.5659750463617347 6.437500000000012 1.625
  endloop
endfacet
facet normal -1.0 -1.8041124150158794e-16 0.0
  outer loop
    vertex 0.5659750463617347 6.437500000000012 0.0
    vertex 0.5659750463617276 6.562500000000002 1.625
    vertex 0.5659750463617276 6.562500000000002 0.3125
  endloop
endfacet
facet normal -1.0 -1.8041124150158794e-16 0.0
  outer loop
    vertex 0.5659750463617347 6.437500000000012 0.0
    vertex 0.5659750463617276 6.562500000000002 0.3125
    vertex 0.565975046361724 7.124999999999995 0.0
  endloop
endfacet
facet normal -1.0 -1.8041124150158794e-16 0.0
  outer loop
    vertex 0.565975046361724 7.124999999999995 0.0
    vertex 0.5659750463617276 6.562500000000002 0.3125
    vertex 0.5659750463617294 7.000000000000016 0.3125
  endloop
endfacet
facet normal -1.0 -1.8041124150158794e-16 0.0
  outer loop
    vertex 0.565975046361724 7.124999999999995 0.0
    vertex 0.5659750463617294 7.000000000000016 0.3125
    vertex 0.565975046361724 7.124999999999995 0.9375
  endloop
endfacet
facet normal 5.739853037312059e-14 -1.0 0.0
  outer loop
    vertex 0.6284750463617276 6.437500000000009 1.625
    vertex 0.5659750463617347 6.437500000000012 0.0
    vertex 0.6284750463617276 6.437500000000009 0.0
  endloop
endfacet
facet normal 5.739853037312059e-14 -1.0 0.0
  outer loop
    vertex 0.5659750463617347 6.437500000000012 0.0
    vertex 0.6284750463617276 6.437500000000009 1.625
    vertex 0.5659750463617347 6.437500000000012 1.625
  endloop
endfacet
facet normal -1.0269562977782698e-15 1.0 4.463626478867097e-16
  outer loop
    vertex 0.5659750463617276 6.562500000000002 1.625
    vertex 1.128475046361733 6.562499999999995 0.3125
    vertex 0.5659750463617276 6.562500000000002 0.3125
  endloop
endfacet
facet normal -1.0269562977782698e-15 1.0 4.463626478867097e-16
  outer loop
    vertex 1.128475046361733 6.562499999999995 0.3125
    vertex 0.5659750463617276 6.562500000000002 1.625
    vertex 1.128475046361733 6.562499999999995 0.9375
  endloop
endfacet
facet normal -1.0269562977782698e-15 1.0 4.463626478867097e-16
  outer loop
    vertex 1.128475046361733 6.562499999999995 0.9375
    vertex 0.5659750463617276 6.562500000000002 1.625
    vertex 1.815975046361726 6.562499999999995 0.9375
  endloop
endfacet
facet normal -1.0269562977782698e-15 1.0 4.463626478867097e-16
  outer loop
    vertex 1.815975046361726 6.562499999999995 0.9375
    vertex 3.815975046361733 6.562500000000044 0.0
    vertex 1.815975046361726 6.562499999999995 0.0
  endloop
endfacet
facet normal -1.0269562977782698e-15 1.0 4.463626478867097e-16
  outer loop
    vertex 3.815975046361733 6.562500000000044 0.0
    vertex 1.815975046361726 6.562499999999995 0.9375
    vertex 3.815975046361733 6.562500000000044 1.625
  endloop
endfacet
facet normal -1.0269562977782698e-15 1.0 4.463626478867097e-16
  outer loop
    vertex 3.815975046361733 6.562500000000044 1.625
    vertex 1.815975046361726 6.562499999999995 0.9375
    vertex 0.5659750463617276 6.562500000000002 1.625
  endloop
endfacet
facet normal 0.0 0.0 1.0
  outer loop
    vertex 1.128475046361733 6.562499999999995 0.3125
    vertex 0.5659750463617294 7.000000000000016 0.3125
    vertex 0.5659750463617276 6.562500000000002 0.3125
  endloop
endfacet
facet normal 0.0 0.0 1.0
  outer loop
    vertex 0.5659750463617294 7.000000000000016 0.3125
    vertex 1.128475046361733 6.562499999999995 0.3125
    vertex 1.1284750463617366 7.0000000000000195 0.3125
  endloop
endfacet
facet normal -8.526512829118052e-14 -1.0 -0.0
  outer loop
    vertex 3.8159750463617224 6.437499999999998 1.625
    vertex 3.7534750463617224 6.437500000000002 0.0
    vertex 3.8159750463617224 6.437499999999998 0.0
  endloop
endfacet
facet normal -8.526512829118052e-14 -1.0 -0.0
  outer loop
    vertex 3.7534750463617224 6.437500000000002 0.0
    vertex 3.8159750463617224 6.437499999999998 1.625
    vertex 3.7534750463617224 6.437500000000002 1.625
  endloop
endfacet
facet normal 2.557953848736363e-16 -1.0 0.0
  outer loop
    vertex 2.440975046361732 1.7763568394002505e-15 1.125
    vertex 1.9409750463617321 1.7763568394002505e-15 0.5
    vertex 2.440975046361732 1.7763568394002505e-15 0.5
  endloop
endfacet
facet normal 2.557953848736363e-16 -1.0 0.0
  outer loop
    vertex 1.9409750463617321 1.7763568394002505e-15 0.5
    vertex 2.440975046361732 1.7763568394002505e-15 1.125
    vertex 1.9409750463617321 1.7763568394002505e-15 1.125
  endloop
endfacet
facet normal -1.0 0.0 0.0
  outer loop
    vertex 1.9409750463617321 1.7763568394002505e-15 1.125
    vertex 1.9409750463617321 -0.2499999999999981 0.75
    vertex 1.9409750463617321 -0.24999999999999833 0.875
  endloop
endfacet
facet normal -1.0 0.0 0.0
  outer loop
    vertex 1.9409750463617321 -0.2499999999999981 0.75
    vertex 1.9409750463617321 1.7763568394002505e-15 1.125
    vertex 1.9409750463617321 1.7763568394002505e-15 0.5
  endloop
endfacet
facet normal 1.0 0.0 0.0
  outer loop
    vertex 2.440975046361732 1.7763568394002505e-15 0.5
    vertex 2.440975046361732 -0.2499999999999981 0.875
    vertex 2.440975046361732 -0.2499999999999981 0.75
  endloop
endfacet
facet normal 1.0 0.0 0.0
  outer loop
    vertex 2.440975046361732 -0.2499999999999981 0.875
    vertex 2.440975046361732 1.7763568394002505e-15 0.5
    vertex 2.440975046361732 1.7763568394002505e-15 1.125
  endloop
endfacet
facet normal 2.220446049250313e-16 -1.0 -6.661338147750939e-16
  outer loop
    vertex 2.440975046361732 -0.2499999999999981 0.875
    vertex 1.9409750463617321 -0.2499999999999981 0.75
    vertex 2.440975046361732 -0.2499999999999981 0.75
  endloop
endfacet
facet normal 2.220446049250313e-16 -1.0 -6.661338147750939e-16
  outer loop
    vertex 1.9409750463617321 -0.2499999999999981 0.75
    vertex 2.440975046361732 -0.2499999999999981 0.875
    vertex 1.9409750463617321 -0.24999999999999833 0.875
  endloop
endfacet
facet normal 0.0 -0.7071067811865477 -0.7071067811865474
  outer loop
    vertex 2.440975046361732 -0.2499999999999981 0.75
    vertex 1.9409750463617321 1.7763568394002505e-15 0.5
    vertex 2.440975046361732 1.7763568394002505e-15 0.5
  endloop
endfacet
facet normal 0.0 -0.7071067811865477 -0.7071067811865474
  outer loop
    vertex 1.9409750463617321 1.7763568394002505e-15 0.5
    vertex 2.440975046361732 -0.2499999999999981 0.75
    vertex 1.9409750463617321 -0.2499999999999981 0.75
  endloop
endfacet
facet normal 2.093456611578367e-16 -0.7071067811865476 0.7071067811865476
  outer loop
    vertex 2.440975046361732 1.7763568394002505e-15 1.125
    vertex 1.9409750463617321 -0.24999999999999833 0.875
    vertex 2.440975046361732 -0.2499999999999981 0.875
  endloop
endfacet
facet normal 2.093456611578367e-16 -0.7071067811865476 0.7071067811865476
  outer loop
    vertex 1.9409750463617321 -0.24999999999999833 0.875
    vertex 2.440975046361732 1.7763568394002505e-15 1.125
    vertex 1.9409750463617321 1.7763568394002505e-15 1.125
  endloop
endfacet
facet normal -0.0 1.0 -0.0
  outer loop
    vertex 3.503475046361733 7.129439517726809 0.43749999999999994
    vertex 3.690975046361733 7.129439517726809 0.0
    vertex 3.503475046361733 7.129439517726809 0.0
  endloop
endfacet
facet normal -0.0 1.0 -0.0
  outer loop
    vertex 3.690975046361733 7.129439517726809 0.0
    vertex 3.503475046361733 7.129439517726809 0.43749999999999994
    vertex 3.690975046361733 7.129439517726809 0.43749999999999994
  endloop
endfacet
facet normal -1.0 0.0 0.0
  outer loop
    vertex 3.503475046361733 7.129439517726809 0.43749999999999994
    vertex 3.503475046361733 6.56250000000003 0.0
    vertex 3.503475046361733 6.56250000000003 0.8125
  endloop
endfacet
facet normal -1.0 0.0 0.0
  outer loop
    vertex 3.503475046361733 6.56250000000003 0.0
    vertex 3.503475046361733 7.129439517726809 0.43749999999999994
    vertex 3.503475046361733 7.129439517726809 0.0
  endloop
endfacet
facet normal -6.9687777067788885e-15 0.5516821526392481 0.8340544361486996
  outer loop
    vertex 3.690975046361733 6.562500000000044 0.8125
    vertex 3.503475046361733 7.129439517726809 0.43749999999999994
    vertex 3.503475046361733 6.56250000000003 0.8125
  endloop
endfacet
facet normal -6.9687777067788885e-15 0.5516821526392481 0.8340544361486996
  outer loop
    vertex 3.503475046361733 7.129439517726809 0.43749999999999994
    vertex 3.690975046361733 6.562500000000044 0.8125
    vertex 3.690975046361733 7.129439517726809 0.43749999999999994
  endloop
endfacet
facet normal 1.0 0.0 0.0
  outer loop
    vertex 3.690975046361733 7.129439517726809 0.0
    vertex 3.690975046361733 6.562500000000044 0.8125
    vertex 3.690975046361733 6.562500000000044 0.0
  endloop
endfacet
facet normal 1.0 0.0 0.0
  outer loop
    vertex 3.690975046361733 6.562500000000044 0.8125
    vertex 3.690975046361733 7.129439517726809 0.0
    vertex 3.690975046361733 7.129439517726809 0.43749999999999994
  endloop
endfacet
endsolid Cashbox Drawer
