solid Untitled-5cd1deb5
facet normal 0.0 0.0 -1.0
  outer loop
    vertex 11.920681122529325 46.91806156544784 0.0
    vertex 11.866588371763218 8.407186331347583 0.0
    vertex 11.866588371763218 46.50718633134758 0.0
  endloop
endfacet
facet normal 0.0 0.0 -1.0
  outer loop
    vertex 11.866588371763218 8.407186331347583 0.0
    vertex 11.920681122529325 46.91806156544784 0.0
    vertex 11.920681122529325 7.996311097247321 0.0
  endloop
endfacet
facet normal 0.0 0.0 -1.0
  outer loop
    vertex 11.920681122529325 7.996311097247321 0.0
    vertex 11.920681122529325 46.91806156544784 0.0
    vertex 12.079273043255407 47.30093633134758 0.0
  endloop
endfacet
facet normal 0.0 0.0 -1.0
  outer loop
    vertex 11.920681122529325 7.996311097247321 0.0
    vertex 12.079273043255407 47.30093633134758 0.0
    vertex 12.079273043255407 7.613436331347583 0.0
  endloop
endfacet
facet normal 0.0 0.0 -1.0
  outer loop
    vertex 12.079273043255407 7.613436331347583 0.0
    vertex 12.079273043255407 47.30093633134758 0.0
    vertex 12.331556356629566 47.62971834648123 0.0
  endloop
endfacet
facet normal 0.0 0.0 -1.0
  outer loop
    vertex 12.079273043255407 7.613436331347583 0.0
    vertex 12.331556356629566 47.62971834648123 0.0
    vertex 12.331556356629566 7.2846543162139294 0.0
  endloop
endfacet
facet normal 0.0 0.0 -1.0
  outer loop
    vertex 12.331556356629566 7.2846543162139294 0.0
    vertex 12.331556356629566 47.62971834648123 0.0
    vertex 12.660338371763219 47.88200165985537 0.0
  endloop
endfacet
facet normal 0.0 0.0 -1.0
  outer loop
    vertex 12.331556356629566 7.2846543162139294 0.0
    vertex 12.660338371763219 47.88200165985537 0.0
    vertex 12.660338371763219 7.032371002839794 0.0
  endloop
endfacet
facet normal 0.0 0.0 -1.0
  outer loop
    vertex 12.660338371763219 7.032371002839794 0.0
    vertex 12.660338371763219 47.88200165985537 0.0
    vertex 13.04321313766298 48.04059358058147 0.0
  endloop
endfacet
facet normal 0.0 0.0 -1.0
  outer loop
    vertex 12.660338371763219 7.032371002839794 0.0
    vertex 13.04321313766298 48.04059358058147 0.0
    vertex 13.04321313766298 6.873779082113691 0.0
  endloop
endfacet
facet normal 0.0 0.0 -1.0
  outer loop
    vertex 13.04321313766298 6.873779082113691 0.0
    vertex 13.04321313766298 48.04059358058147 0.0
    vertex 13.454088371763218 48.09468633134758 0.0
  endloop
endfacet
facet normal 0.0 0.0 -1.0
  outer loop
    vertex 13.04321313766298 6.873779082113691 0.0
    vertex 13.454088371763218 48.09468633134758 0.0
    vertex 13.454088371763218 6.819686331347583 0.0
  endloop
endfacet
facet normal 0.0 0.0 -1.0
  outer loop
    vertex 13.454088371763218 6.819686331347583 0.0
    vertex 13.454088371763218 48.09468633134758 0.0
    vertex 18.270681122529325 40.56806156544784 0.0
  endloop
endfacet
facet normal 0.0 0.0 -1.0
  outer loop
    vertex 18.270681122529325 40.56806156544784 0.0
    vertex 13.454088371763218 48.09468633134758 0.0
    vertex 18.429273043255407 40.950936331347584 0.0
  endloop
endfacet
facet normal 0.0 0.0 -1.0
  outer loop
    vertex 18.429273043255407 40.950936331347584 0.0
    vertex 13.454088371763218 48.09468633134758 0.0
    vertex 18.681556356629564 41.27971834648123 0.0
  endloop
endfacet
facet normal 0.0 0.0 -1.0
  outer loop
    vertex 18.681556356629564 41.27971834648123 0.0
    vertex 13.454088371763218 48.09468633134758 0.0
    vertex 19.01033837176322 41.53200165985537 0.0
  endloop
endfacet
facet normal 0.0 0.0 -1.0
  outer loop
    vertex 19.01033837176322 41.53200165985537 0.0
    vertex 13.454088371763218 48.09468633134758 0.0
    vertex 19.39321313766298 41.69059358058147 0.0
  endloop
endfacet
facet normal 0.0 0.0 -1.0
  outer loop
    vertex 19.39321313766298 41.69059358058147 0.0
    vertex 13.454088371763218 48.09468633134758 0.0
    vertex 19.804088371763218 41.74468633134758 0.0
  endloop
endfacet
facet normal 0.0 0.0 -1.0
  outer loop
    vertex 19.804088371763218 41.74468633134758 0.0
    vertex 13.454088371763218 48.09468633134758 0.0
    vertex 73.77908837176321 44.91968633134758 0.0
  endloop
endfacet
facet normal 0.0 0.0 -1.0
  outer loop
    vertex 73.77908837176321 44.91968633134758 0.0
    vertex 13.454088371763218 48.09468633134758 0.0
    vertex 154.7415883717632 48.09468633134758 0.0
  endloop
endfacet
facet normal 0.0 0.0 -1.0
  outer loop
    vertex 13.454088371763218 6.819686331347583 0.0
    vertex 18.270681122529325 40.56806156544784 0.0
    vertex 18.21658837176322 40.15718633134758 0.0
  endloop
endfacet
facet normal 0.0 0.0 -1.0
  outer loop
    vertex 19.804088371763218 41.74468633134758 0.0
    vertex 73.77908837176321 44.91968633134758 0.0
    vertex 64.25408837176322 41.74468633134758 0.0
  endloop
endfacet
facet normal 0.0 0.0 -1.0
  outer loop
    vertex 64.25408837176322 41.74468633134758 0.0
    vertex 73.77908837176321 44.91968633134758 0.0
    vertex 64.66496360586345 41.69059358058147 0.0
  endloop
endfacet
facet normal 0.0 0.0 -1.0
  outer loop
    vertex 64.66496360586345 41.69059358058147 0.0
    vertex 73.77908837176321 44.91968633134758 0.0
    vertex 65.04783837176322 41.53200165985537 0.0
  endloop
endfacet
facet normal 0.0 0.0 -1.0
  outer loop
    vertex 65.04783837176322 41.53200165985537 0.0
    vertex 73.77908837176321 44.91968633134758 0.0
    vertex 65.37662038689687 41.27971834648123 0.0
  endloop
endfacet
facet normal 0.0 0.0 -1.0
  outer loop
    vertex 65.37662038689687 41.27971834648123 0.0
    vertex 73.77908837176321 44.91968633134758 0.0
    vertex 65.62890370027102 40.950936331347584 0.0
  endloop
endfacet
facet normal 0.0 0.0 -1.0
  outer loop
    vertex 65.62890370027102 40.950936331347584 0.0
    vertex 73.77908837176321 44.91968633134758 0.0
    vertex 65.7874956209971 40.56806156544784 0.0
  endloop
endfacet
facet normal 0.0 0.0 -1.0
  outer loop
    vertex 65.7874956209971 40.56806156544784 0.0
    vertex 73.77908837176321 44.91968633134758 0.0
    vertex 65.84158837176321 40.15718633134758 0.0
  endloop
endfacet
facet normal 0.0 0.0 -1.0
  outer loop
    vertex 65.84158837176321 40.15718633134758 0.0
    vertex 73.77908837176321 44.91968633134758 0.0
    vertex 65.84158837176321 14.757186331347583 0.0
  endloop
endfacet
facet normal 0.0 0.0 -1.0
  outer loop
    vertex 65.84158837176321 14.757186331347583 0.0
    vertex 73.77908837176321 44.91968633134758 0.0
    vertex 72.19158837176322 35.39468633134758 0.0
  endloop
endfacet
facet normal 0.0 0.0 -1.0
  outer loop
    vertex 65.84158837176321 14.757186331347583 0.0
    vertex 72.19158837176322 35.39468633134758 0.0
    vertex 70.60408837176321 6.819686331347583 0.0
  endloop
endfacet
facet normal 0.0 0.0 -1.0
  outer loop
    vertex 70.60408837176321 6.819686331347583 0.0
    vertex 72.19158837176322 35.39468633134758 0.0
    vertex 71.01496360586346 6.873779082113691 0.0
  endloop
endfacet
facet normal 0.0 0.0 -1.0
  outer loop
    vertex 71.01496360586346 6.873779082113691 0.0
    vertex 72.19158837176322 35.39468633134758 0.0
    vertex 71.39783837176321 7.032371002839794 0.0
  endloop
endfacet
facet normal 0.0 0.0 -1.0
  outer loop
    vertex 71.39783837176321 7.032371002839794 0.0
    vertex 72.19158837176322 35.39468633134758 0.0
    vertex 71.72662038689687 7.2846543162139294 0.0
  endloop
endfacet
facet normal 0.0 0.0 -1.0
  outer loop
    vertex 71.72662038689687 7.2846543162139294 0.0
    vertex 72.19158837176322 35.39468633134758 0.0
    vertex 71.97890370027103 7.613436331347583 0.0
  endloop
endfacet
facet normal 0.0 0.0 -1.0
  outer loop
    vertex 71.97890370027103 7.613436331347583 0.0
    vertex 72.19158837176322 35.39468633134758 0.0
    vertex 72.1374956209971 7.996311097247321 0.0
  endloop
endfacet
facet normal 0.0 0.0 -1.0
  outer loop
    vertex 73.77908837176321 44.91968633134758 0.0
    vertex 154.7415883717632 48.09468633134758 0.0
    vertex 153.1540883717632 44.91968633134758 0.0
  endloop
endfacet
facet normal 0.0 0.0 -1.0
  outer loop
    vertex 153.1540883717632 44.91968633134758 0.0
    vertex 154.7415883717632 48.09468633134758 0.0
    vertex 153.1540883717632 38.56968633134758 0.0
  endloop
endfacet
facet normal 0.0 0.0 -1.0
  outer loop
    vertex 73.77908837176321 44.91968633134758 0.0
    vertex 73.77908837176321 35.39468633134758 0.0
    vertex 72.19158837176322 35.39468633134758 0.0
  endloop
endfacet
facet normal 0.0 0.0 -1.0
  outer loop
    vertex 73.77908837176321 35.39468633134758 0.0
    vertex 73.77908837176321 44.91968633134758 0.0
    vertex 73.77908837176321 38.56968633134758 0.0
  endloop
endfacet
facet normal 0.0 0.0 -1.0
  outer loop
    vertex 73.77908837176321 35.39468633134758 0.0
    vertex 73.77908837176321 38.56968633134758 0.0
    vertex 153.1540883717632 38.56968633134758 0.0
  endloop
endfacet
facet normal 0.0 0.0 -1.0
  outer loop
    vertex 73.77908837176321 35.39468633134758 0.0
    vertex 153.1540883717632 38.56968633134758 0.0
    vertex 154.7415883717632 35.39468633134758 0.0
  endloop
endfacet
facet normal 0.0 0.0 -1.0
  outer loop
    vertex 154.7415883717632 35.39468633134758 0.0
    vertex 153.1540883717632 38.56968633134758 0.0
    vertex 154.7415883717632 48.09468633134758 0.0
  endloop
endfacet
facet normal 0.0 0.0 -1.0
  outer loop
    vertex 154.7415883717632 35.39468633134758 0.0
    vertex 154.7415883717632 48.09468633134758 0.0
    vertex 155.15246360586346 48.04059358058147 0.0
  endloop
endfacet
facet normal 0.0 0.0 -1.0
  outer loop
    vertex 154.7415883717632 35.39468633134758 0.0
    vertex 155.15246360586346 48.04059358058147 0.0
    vertex 155.15246360586346 35.44877908211369 0.0
  endloop
endfacet
facet normal 0.0 0.0 -1.0
  outer loop
    vertex 155.15246360586346 35.44877908211369 0.0
    vertex 155.15246360586346 48.04059358058147 0.0
    vertex 155.5353383717632 47.88200165985537 0.0
  endloop
endfacet
facet normal 0.0 0.0 -1.0
  outer loop
    vertex 155.15246360586346 35.44877908211369 0.0
    vertex 155.5353383717632 47.88200165985537 0.0
    vertex 155.5353383717632 35.60737100283979 0.0
  endloop
endfacet
facet normal 0.0 0.0 -1.0
  outer loop
    vertex 155.5353383717632 35.60737100283979 0.0
    vertex 155.5353383717632 47.88200165985537 0.0
    vertex 155.86412038689687 47.62971834648123 0.0
  endloop
endfacet
facet normal 0.0 0.0 -1.0
  outer loop
    vertex 155.5353383717632 35.60737100283979 0.0
    vertex 155.86412038689687 47.62971834648123 0.0
    vertex 155.86412038689687 35.85965431621393 0.0
  endloop
endfacet
facet normal 0.0 0.0 -1.0
  outer loop
    vertex 155.86412038689687 35.85965431621393 0.0
    vertex 155.86412038689687 47.62971834648123 0.0
    vertex 156.11640370027104 47.30093633134758 0.0
  endloop
endfacet
facet normal 0.0 0.0 -1.0
  outer loop
    vertex 155.86412038689687 35.85965431621393 0.0
    vertex 156.11640370027104 47.30093633134758 0.0
    vertex 156.11640370027104 36.18843633134758 0.0
  endloop
endfacet
facet normal 0.0 0.0 -1.0
  outer loop
    vertex 156.11640370027104 36.18843633134758 0.0
    vertex 156.11640370027104 47.30093633134758 0.0
    vertex 156.2749956209971 46.91806156544784 0.0
  endloop
endfacet
facet normal 0.0 0.0 -1.0
  outer loop
    vertex 156.11640370027104 36.18843633134758 0.0
    vertex 156.2749956209971 46.91806156544784 0.0
    vertex 156.2749956209971 36.57131109724732 0.0
  endloop
endfacet
facet normal 0.0 0.0 -1.0
  outer loop
    vertex 156.2749956209971 36.57131109724732 0.0
    vertex 156.2749956209971 46.91806156544784 0.0
    vertex 156.32908837176322 46.50718633134758 0.0
  endloop
endfacet
facet normal 0.0 0.0 -1.0
  outer loop
    vertex 156.2749956209971 36.57131109724732 0.0
    vertex 156.32908837176322 46.50718633134758 0.0
    vertex 156.32908837176322 36.982186331347584 0.0
  endloop
endfacet
facet normal 0.0 0.0 -1.0
  outer loop
    vertex 13.454088371763218 6.819686331347583 0.0
    vertex 19.804088371763218 13.169686331347583 0.0
    vertex 70.60408837176321 6.819686331347583 0.0
  endloop
endfacet
facet normal 0.0 0.0 -1.0
  outer loop
    vertex 19.804088371763218 13.169686331347583 0.0
    vertex 13.454088371763218 6.819686331347583 0.0
    vertex 19.39321313766298 13.22377908211369 0.0
  endloop
endfacet
facet normal 0.0 0.0 -1.0
  outer loop
    vertex 19.39321313766298 13.22377908211369 0.0
    vertex 13.454088371763218 6.819686331347583 0.0
    vertex 19.01033837176322 13.382371002839793 0.0
  endloop
endfacet
facet normal 0.0 0.0 -1.0
  outer loop
    vertex 19.01033837176322 13.382371002839793 0.0
    vertex 13.454088371763218 6.819686331347583 0.0
    vertex 18.681556356629564 13.634654316213929 0.0
  endloop
endfacet
facet normal 0.0 0.0 -1.0
  outer loop
    vertex 18.681556356629564 13.634654316213929 0.0
    vertex 13.454088371763218 6.819686331347583 0.0
    vertex 18.429273043255407 13.963436331347582 0.0
  endloop
endfacet
facet normal 0.0 0.0 -1.0
  outer loop
    vertex 18.429273043255407 13.963436331347582 0.0
    vertex 13.454088371763218 6.819686331347583 0.0
    vertex 18.270681122529325 14.346311097247321 0.0
  endloop
endfacet
facet normal 0.0 0.0 -1.0
  outer loop
    vertex 18.270681122529325 14.346311097247321 0.0
    vertex 13.454088371763218 6.819686331347583 0.0
    vertex 18.21658837176322 14.757186331347583 0.0
  endloop
endfacet
facet normal 0.0 0.0 -1.0
  outer loop
    vertex 18.21658837176322 14.757186331347583 0.0
    vertex 13.454088371763218 6.819686331347583 0.0
    vertex 18.21658837176322 40.15718633134758 0.0
  endloop
endfacet
facet normal 0.0 0.0 -1.0
  outer loop
    vertex 70.60408837176321 6.819686331347583 0.0
    vertex 19.804088371763218 13.169686331347583 0.0
    vertex 64.25408837176322 13.169686331347583 0.0
  endloop
endfacet
facet normal 0.0 0.0 -1.0
  outer loop
    vertex 70.60408837176321 6.819686331347583 0.0
    vertex 64.25408837176322 13.169686331347583 0.0
    vertex 64.66496360586345 13.22377908211369 0.0
  endloop
endfacet
facet normal 0.0 0.0 -1.0
  outer loop
    vertex 70.60408837176321 6.819686331347583 0.0
    vertex 64.66496360586345 13.22377908211369 0.0
    vertex 65.04783837176322 13.382371002839793 0.0
  endloop
endfacet
facet normal 0.0 0.0 -1.0
  outer loop
    vertex 70.60408837176321 6.819686331347583 0.0
    vertex 65.04783837176322 13.382371002839793 0.0
    vertex 65.37662038689687 13.634654316213929 0.0
  endloop
endfacet
facet normal 0.0 0.0 -1.0
  outer loop
    vertex 70.60408837176321 6.819686331347583 0.0
    vertex 65.37662038689687 13.634654316213929 0.0
    vertex 65.62890370027102 13.963436331347582 0.0
  endloop
endfacet
facet normal 0.0 0.0 -1.0
  outer loop
    vertex 70.60408837176321 6.819686331347583 0.0
    vertex 65.62890370027102 13.963436331347582 0.0
    vertex 65.7874956209971 14.346311097247321 0.0
  endloop
endfacet
facet normal 0.0 0.0 -1.0
  outer loop
    vertex 70.60408837176321 6.819686331347583 0.0
    vertex 65.7874956209971 14.346311097247321 0.0
    vertex 65.84158837176321 14.757186331347583 0.0
  endloop
endfacet
facet normal 0.0 0.0 -1.0
  outer loop
    vertex 72.19158837176322 8.407186331347583 0.0
    vertex 72.1374956209971 7.996311097247321 0.0
    vertex 72.19158837176322 35.39468633134758 0.0
  endloop
endfacet
facet normal 0.0 0.0 1.0
  outer loop
    vertex 11.920681122529325 7.996311097247321 3.175
    vertex 11.866588371763218 46.50718633134758 3.175
    vertex 11.866588371763218 8.407186331347583 3.175
  endloop
endfacet
facet normal 0.0 0.0 1.0
  outer loop
    vertex 11.866588371763218 46.50718633134758 3.175
    vertex 11.920681122529325 7.996311097247321 3.175
    vertex 11.920681122529325 46.91806156544784 3.175
  endloop
endfacet
facet normal 0.0 0.0 1.0
  outer loop
    vertex 11.920681122529325 46.91806156544784 3.175
    vertex 11.920681122529325 7.996311097247321 3.175
    vertex 12.079273043255407 7.613436331347583 3.175
  endloop
endfacet
facet normal 0.0 0.0 1.0
  outer loop
    vertex 11.920681122529325 46.91806156544784 3.175
    vertex 12.079273043255407 7.613436331347583 3.175
    vertex 12.079273043255407 47.30093633134758 3.175
  endloop
endfacet
facet normal 0.0 0.0 1.0
  outer loop
    vertex 12.079273043255407 47.30093633134758 3.175
    vertex 12.079273043255407 7.613436331347583 3.175
    vertex 12.331556356629566 7.2846543162139294 3.175
  endloop
endfacet
facet normal 0.0 0.0 1.0
  outer loop
    vertex 12.079273043255407 47.30093633134758 3.175
    vertex 12.331556356629566 7.2846543162139294 3.175
    vertex 12.331556356629566 47.62971834648123 3.175
  endloop
endfacet
facet normal 0.0 0.0 1.0
  outer loop
    vertex 12.331556356629566 47.62971834648123 3.175
    vertex 12.331556356629566 7.2846543162139294 3.175
    vertex 12.660338371763219 7.032371002839794 3.175
  endloop
endfacet
facet normal 0.0 0.0 1.0
  outer loop
    vertex 12.331556356629566 47.62971834648123 3.175
    vertex 12.660338371763219 7.032371002839794 3.175
    vertex 12.660338371763219 47.88200165985537 3.175
  endloop
endfacet
facet normal 0.0 0.0 1.0
  outer loop
    vertex 12.660338371763219 47.88200165985537 3.175
    vertex 12.660338371763219 7.032371002839794 3.175
    vertex 13.04321313766298 6.873779082113691 3.175
  endloop
endfacet
facet normal 0.0 0.0 1.0
  outer loop
    vertex 12.660338371763219 47.88200165985537 3.175
    vertex 13.04321313766298 6.873779082113691 3.175
    vertex 13.04321313766298 48.04059358058147 3.175
  endloop
endfacet
facet normal 0.0 0.0 1.0
  outer loop
    vertex 13.04321313766298 48.04059358058147 3.175
    vertex 13.04321313766298 6.873779082113691 3.175
    vertex 13.454088371763218 6.819686331347583 3.175
  endloop
endfacet
facet normal 0.0 0.0 1.0
  outer loop
    vertex 13.04321313766298 48.04059358058147 3.175
    vertex 13.454088371763218 6.819686331347583 3.175
    vertex 13.454088371763218 48.09468633134758 3.175
  endloop
endfacet
facet normal 0.0 0.0 1.0
  outer loop
    vertex 13.454088371763218 48.09468633134758 3.175
    vertex 13.454088371763218 6.819686331347583 3.175
    vertex 18.270681122529325 14.346311097247321 3.175
  endloop
endfacet
facet normal 0.0 0.0 1.0
  outer loop
    vertex 18.270681122529325 14.346311097247321 3.175
    vertex 13.454088371763218 6.819686331347583 3.175
    vertex 18.429273043255407 13.963436331347582 3.175
  endloop
endfacet
facet normal 0.0 0.0 1.0
  outer loop
    vertex 18.429273043255407 13.963436331347582 3.175
    vertex 13.454088371763218 6.819686331347583 3.175
    vertex 18.681556356629564 13.634654316213929 3.175
  endloop
endfacet
facet normal 0.0 0.0 1.0
  outer loop
    vertex 18.681556356629564 13.634654316213929 3.175
    vertex 13.454088371763218 6.819686331347583 3.175
    vertex 19.01033837176322 13.382371002839793 3.175
  endloop
endfacet
facet normal 0.0 0.0 1.0
  outer loop
    vertex 19.01033837176322 13.382371002839793 3.175
    vertex 13.454088371763218 6.819686331347583 3.175
    vertex 19.39321313766298 13.22377908211369 3.175
  endloop
endfacet
facet normal 0.0 0.0 1.0
  outer loop
    vertex 19.39321313766298 13.22377908211369 3.175
    vertex 13.454088371763218 6.819686331347583 3.175
    vertex 19.804088371763218 13.169686331347583 3.175
  endloop
endfacet
facet normal 0.0 0.0 1.0
  outer loop
    vertex 19.804088371763218 13.169686331347583 3.175
    vertex 13.454088371763218 6.819686331347583 3.175
    vertex 70.60408837176321 6.819686331347583 3.175
  endloop
endfacet
facet normal 0.0 0.0 1.0
  outer loop
    vertex 13.454088371763218 48.09468633134758 3.175
    vertex 18.270681122529325 14.346311097247321 3.175
    vertex 18.21658837176322 14.757186331347583 3.175
  endloop
endfacet
facet normal 0.0 0.0 1.0
  outer loop
    vertex 19.804088371763218 13.169686331347583 3.175
    vertex 70.60408837176321 6.819686331347583 3.175
    vertex 64.25408837176322 13.169686331347583 3.175
  endloop
endfacet
facet normal 0.0 0.0 1.0
  outer loop
    vertex 64.25408837176322 13.169686331347583 3.175
    vertex 70.60408837176321 6.819686331347583 3.175
    vertex 64.66496360586345 13.22377908211369 3.175
  endloop
endfacet
facet normal 0.0 0.0 1.0
  outer loop
    vertex 64.66496360586345 13.22377908211369 3.175
    vertex 70.60408837176321 6.819686331347583 3.175
    vertex 65.04783837176322 13.382371002839793 3.175
  endloop
endfacet
facet normal 0.0 0.0 1.0
  outer loop
    vertex 65.04783837176322 13.382371002839793 3.175
    vertex 70.60408837176321 6.819686331347583 3.175
    vertex 65.37662038689687 13.634654316213929 3.175
  endloop
endfacet
facet normal 0.0 0.0 1.0
  outer loop
    vertex 65.37662038689687 13.634654316213929 3.175
    vertex 70.60408837176321 6.819686331347583 3.175
    vertex 65.62890370027102 13.963436331347582 3.175
  endloop
endfacet
facet normal 0.0 0.0 1.0
  outer loop
    vertex 65.62890370027102 13.963436331347582 3.175
    vertex 70.60408837176321 6.819686331347583 3.175
    vertex 65.7874956209971 14.346311097247321 3.175
  endloop
endfacet
facet normal 0.0 0.0 1.0
  outer loop
    vertex 65.7874956209971 14.346311097247321 3.175
    vertex 70.60408837176321 6.819686331347583 3.175
    vertex 65.84158837176321 14.757186331347583 3.175
  endloop
endfacet
facet normal 0.0 0.0 1.0
  outer loop
    vertex 65.84158837176321 14.757186331347583 3.175
    vertex 70.60408837176321 6.819686331347583 3.175
    vertex 65.84158837176321 40.15718633134758 3.175
  endloop
endfacet
facet normal 0.0 0.0 1.0
  outer loop
    vertex 154.7415883717632 35.39468633134758 3.175
    vertex 73.77908837176321 38.56968633134758 3.175
    vertex 73.77908837176321 35.39468633134758 3.175
  endloop
endfacet
facet normal 0.0 0.0 1.0
  outer loop
    vertex 73.77908837176321 38.56968633134758 3.175
    vertex 154.7415883717632 35.39468633134758 3.175
    vertex 153.1540883717632 38.56968633134758 3.175
  endloop
endfacet
facet normal 0.0 0.0 1.0
  outer loop
    vertex 153.1540883717632 38.56968633134758 3.175
    vertex 154.7415883717632 35.39468633134758 3.175
    vertex 153.1540883717632 44.91968633134758 3.175
  endloop
endfacet
facet normal 0.0 0.0 1.0
  outer loop
    vertex 13.454088371763218 48.09468633134758 3.175
    vertex 73.77908837176321 44.91968633134758 3.175
    vertex 154.7415883717632 48.09468633134758 3.175
  endloop
endfacet
facet normal 0.0 0.0 1.0
  outer loop
    vertex 73.77908837176321 44.91968633134758 3.175
    vertex 13.454088371763218 48.09468633134758 3.175
    vertex 19.804088371763218 41.74468633134758 3.175
  endloop
endfacet
facet normal 0.0 0.0 1.0
  outer loop
    vertex 19.804088371763218 41.74468633134758 3.175
    vertex 13.454088371763218 48.09468633134758 3.175
    vertex 19.39321313766298 41.69059358058147 3.175
  endloop
endfacet
facet normal 0.0 0.0 1.0
  outer loop
    vertex 19.39321313766298 41.69059358058147 3.175
    vertex 13.454088371763218 48.09468633134758 3.175
    vertex 19.01033837176322 41.53200165985537 3.175
  endloop
endfacet
facet normal 0.0 0.0 1.0
  outer loop
    vertex 19.01033837176322 41.53200165985537 3.175
    vertex 13.454088371763218 48.09468633134758 3.175
    vertex 18.681556356629564 41.27971834648123 3.175
  endloop
endfacet
facet normal 0.0 0.0 1.0
  outer loop
    vertex 18.681556356629564 41.27971834648123 3.175
    vertex 13.454088371763218 48.09468633134758 3.175
    vertex 18.429273043255407 40.950936331347584 3.175
  endloop
endfacet
facet normal 0.0 0.0 1.0
  outer loop
    vertex 18.429273043255407 40.950936331347584 3.175
    vertex 13.454088371763218 48.09468633134758 3.175
    vertex 18.270681122529325 40.56806156544784 3.175
  endloop
endfacet
facet normal 0.0 0.0 1.0
  outer loop
    vertex 18.270681122529325 40.56806156544784 3.175
    vertex 13.454088371763218 48.09468633134758 3.175
    vertex 18.21658837176322 40.15718633134758 3.175
  endloop
endfacet
facet normal 0.0 0.0 1.0
  outer loop
    vertex 18.21658837176322 40.15718633134758 3.175
    vertex 13.454088371763218 48.09468633134758 3.175
    vertex 18.21658837176322 14.757186331347583 3.175
  endloop
endfacet
facet normal 0.0 0.0 1.0
  outer loop
    vertex 73.77908837176321 44.91968633134758 3.175
    vertex 19.804088371763218 41.74468633134758 3.175
    vertex 64.25408837176322 41.74468633134758 3.175
  endloop
endfacet
facet normal 0.0 0.0 1.0
  outer loop
    vertex 73.77908837176321 44.91968633134758 3.175
    vertex 64.25408837176322 41.74468633134758 3.175
    vertex 64.66496360586345 41.69059358058147 3.175
  endloop
endfacet
facet normal 0.0 0.0 1.0
  outer loop
    vertex 73.77908837176321 44.91968633134758 3.175
    vertex 64.66496360586345 41.69059358058147 3.175
    vertex 65.04783837176322 41.53200165985537 3.175
  endloop
endfacet
facet normal 0.0 0.0 1.0
  outer loop
    vertex 73.77908837176321 44.91968633134758 3.175
    vertex 65.04783837176322 41.53200165985537 3.175
    vertex 65.37662038689687 41.27971834648123 3.175
  endloop
endfacet
facet normal 0.0 0.0 1.0
  outer loop
    vertex 73.77908837176321 44.91968633134758 3.175
    vertex 65.37662038689687 41.27971834648123 3.175
    vertex 65.62890370027102 40.950936331347584 3.175
  endloop
endfacet
facet normal 0.0 0.0 1.0
  outer loop
    vertex 73.77908837176321 44.91968633134758 3.175
    vertex 65.62890370027102 40.950936331347584 3.175
    vertex 65.7874956209971 40.56806156544784 3.175
  endloop
endfacet
facet normal 0.0 0.0 1.0
  outer loop
    vertex 73.77908837176321 44.91968633134758 3.175
    vertex 65.7874956209971 40.56806156544784 3.175
    vertex 65.84158837176321 40.15718633134758 3.175
  endloop
endfacet
facet normal 0.0 0.0 1.0
  outer loop
    vertex 73.77908837176321 44.91968633134758 3.175
    vertex 65.84158837176321 40.15718633134758 3.175
    vertex 72.19158837176322 35.39468633134758 3.175
  endloop
endfacet
facet normal 0.0 0.0 1.0
  outer loop
    vertex 72.19158837176322 35.39468633134758 3.175
    vertex 65.84158837176321 40.15718633134758 3.175
    vertex 70.60408837176321 6.819686331347583 3.175
  endloop
endfacet
facet normal 0.0 0.0 1.0
  outer loop
    vertex 72.19158837176322 35.39468633134758 3.175
    vertex 70.60408837176321 6.819686331347583 3.175
    vertex 71.01496360586346 6.873779082113691 3.175
  endloop
endfacet
facet normal 0.0 0.0 1.0
  outer loop
    vertex 72.19158837176322 35.39468633134758 3.175
    vertex 71.01496360586346 6.873779082113691 3.175
    vertex 71.39783837176321 7.032371002839794 3.175
  endloop
endfacet
facet normal 0.0 0.0 1.0
  outer loop
    vertex 72.19158837176322 35.39468633134758 3.175
    vertex 71.39783837176321 7.032371002839794 3.175
    vertex 71.72662038689687 7.2846543162139294 3.175
  endloop
endfacet
facet normal 0.0 0.0 1.0
  outer loop
    vertex 72.19158837176322 35.39468633134758 3.175
    vertex 71.72662038689687 7.2846543162139294 3.175
    vertex 71.97890370027103 7.613436331347583 3.175
  endloop
endfacet
facet normal 0.0 0.0 1.0
  outer loop
    vertex 72.19158837176322 35.39468633134758 3.175
    vertex 71.97890370027103 7.613436331347583 3.175
    vertex 72.1374956209971 7.996311097247321 3.175
  endloop
endfacet
facet normal 0.0 0.0 1.0
  outer loop
    vertex 72.19158837176322 35.39468633134758 3.175
    vertex 72.1374956209971 7.996311097247321 3.175
    vertex 72.19158837176322 8.407186331347583 3.175
  endloop
endfacet
facet normal 0.0 0.0 1.0
  outer loop
    vertex 73.77908837176321 44.91968633134758 3.175
    vertex 72.19158837176322 35.39468633134758 3.175
    vertex 73.77908837176321 35.39468633134758 3.175
  endloop
endfacet
facet normal 0.0 0.0 1.0
  outer loop
    vertex 73.77908837176321 44.91968633134758 3.175
    vertex 73.77908837176321 35.39468633134758 3.175
    vertex 73.77908837176321 38.56968633134758 3.175
  endloop
endfacet
facet normal 0.0 0.0 1.0
  outer loop
    vertex 154.7415883717632 48.09468633134758 3.175
    vertex 73.77908837176321 44.91968633134758 3.175
    vertex 153.1540883717632 44.91968633134758 3.175
  endloop
endfacet
facet normal 0.0 0.0 1.0
  outer loop
    vertex 154.7415883717632 48.09468633134758 3.175
    vertex 153.1540883717632 44.91968633134758 3.175
    vertex 154.7415883717632 35.39468633134758 3.175
  endloop
endfacet
facet normal 0.0 0.0 1.0
  outer loop
    vertex 154.7415883717632 48.09468633134758 3.175
    vertex 154.7415883717632 35.39468633134758 3.175
    vertex 155.15246360586346 35.44877908211369 3.175
  endloop
endfacet
facet normal 0.0 0.0 1.0
  outer loop
    vertex 154.7415883717632 48.09468633134758 3.175
    vertex 155.15246360586346 35.44877908211369 3.175
    vertex 155.15246360586346 48.04059358058147 3.175
  endloop
endfacet
facet normal 0.0 0.0 1.0
  outer loop
    vertex 155.15246360586346 48.04059358058147 3.175
    vertex 155.15246360586346 35.44877908211369 3.175
    vertex 155.5353383717632 35.60737100283979 3.175
  endloop
endfacet
facet normal 0.0 0.0 1.0
  outer loop
    vertex 155.15246360586346 48.04059358058147 3.175
    vertex 155.5353383717632 35.60737100283979 3.175
    vertex 155.5353383717632 47.88200165985537 3.175
  endloop
endfacet
facet normal 0.0 0.0 1.0
  outer loop
    vertex 155.5353383717632 47.88200165985537 3.175
    vertex 155.5353383717632 35.60737100283979 3.175
    vertex 155.86412038689687 35.85965431621393 3.175
  endloop
endfacet
facet normal 0.0 0.0 1.0
  outer loop
    vertex 155.5353383717632 47.88200165985537 3.175
    vertex 155.86412038689687 35.85965431621393 3.175
    vertex 155.86412038689687 47.62971834648123 3.175
  endloop
endfacet
facet normal 0.0 0.0 1.0
  outer loop
    vertex 155.86412038689687 47.62971834648123 3.175
    vertex 155.86412038689687 35.85965431621393 3.175
    vertex 156.11640370027104 36.18843633134758 3.175
  endloop
endfacet
facet normal 0.0 0.0 1.0
  outer loop
    vertex 155.86412038689687 47.62971834648123 3.175
    vertex 156.11640370027104 36.18843633134758 3.175
    vertex 156.11640370027104 47.30093633134758 3.175
  endloop
endfacet
facet normal 0.0 0.0 1.0
  outer loop
    vertex 156.11640370027104 47.30093633134758 3.175
    vertex 156.11640370027104 36.18843633134758 3.175
    vertex 156.2749956209971 36.57131109724732 3.175
  endloop
endfacet
facet normal 0.0 0.0 1.0
  outer loop
    vertex 156.11640370027104 47.30093633134758 3.175
    vertex 156.2749956209971 36.57131109724732 3.175
    vertex 156.2749956209971 46.91806156544784 3.175
  endloop
endfacet
facet normal 0.0 0.0 1.0
  outer loop
    vertex 156.2749956209971 46.91806156544784 3.175
    vertex 156.2749956209971 36.57131109724732 3.175
    vertex 156.32908837176322 36.982186331347584 3.175
  endloop
endfacet
facet normal 0.0 0.0 1.0
  outer loop
    vertex 156.2749956209971 46.91806156544784 3.175
    vertex 156.32908837176322 36.982186331347584 3.175
    vertex 156.32908837176322 46.50718633134758 3.175
  endloop
endfacet
facet normal -0.0 -1.0 -0.0
  outer loop
    vertex 73.77908837176321 35.39468633134758 3.175
    vertex 72.19158837176322 35.39468633134758 0.0
    vertex 73.77908837176321 35.39468633134758 0.0
  endloop
endfacet
facet normal -0.0 -1.0 -0.0
  outer loop
    vertex 72.19158837176322 35.39468633134758 0.0
    vertex 73.77908837176321 35.39468633134758 3.175
    vertex 72.19158837176322 35.39468633134758 3.175
  endloop
endfacet
facet normal 1.0 0.0 0.0
  outer loop
    vertex 72.19158837176322 35.39468633134758 0.0
    vertex 72.19158837176322 8.407186331347583 3.175
    vertex 72.19158837176322 8.407186331347583 0.0
  endloop
endfacet
facet normal 1.0 0.0 0.0
  outer loop
    vertex 72.19158837176322 8.407186331347583 3.175
    vertex 72.19158837176322 35.39468633134758 0.0
    vertex 72.19158837176322 35.39468633134758 3.175
  endloop
endfacet
facet normal 0.9914448613738098 -0.1305261922200572 0.0
  outer loop
    vertex 72.19158837176322 8.407186331347583 0.0
    vertex 72.1374956209971 7.996311097247321 3.175
    vertex 72.1374956209971 7.996311097247321 0.0
  endloop
endfacet
facet normal 0.9914448613738098 -0.1305261922200572 0.0
  outer loop
    vertex 72.1374956209971 7.996311097247321 3.175
    vertex 72.19158837176322 8.407186331347583 0.0
    vertex 72.19158837176322 8.407186331347583 3.175
  endloop
endfacet
facet normal 0.9238795325112993 -0.3826834323650596 0.0
  outer loop
    vertex 72.1374956209971 7.996311097247321 0.0
    vertex 71.97890370027103 7.613436331347583 3.175
    vertex 71.97890370027103 7.613436331347583 0.0
  endloop
endfacet
facet normal 0.9238795325112993 -0.3826834323650596 0.0
  outer loop
    vertex 71.97890370027103 7.613436331347583 3.175
    vertex 72.1374956209971 7.996311097247321 0.0
    vertex 72.1374956209971 7.996311097247321 3.175
  endloop
endfacet
facet normal 0.7933533402912364 -0.6087614290087192 0.0
  outer loop
    vertex 71.97890370027103 7.613436331347583 0.0
    vertex 71.72662038689687 7.2846543162139294 3.175
    vertex 71.72662038689687 7.2846543162139294 0.0
  endloop
endfacet
facet normal 0.7933533402912364 -0.6087614290087192 0.0
  outer loop
    vertex 71.72662038689687 7.2846543162139294 3.175
    vertex 71.97890370027103 7.613436331347583 0.0
    vertex 71.97890370027103 7.613436331347583 3.175
  endloop
endfacet
facet normal 0.608761429008685 -0.7933533402912626 0.0
  outer loop
    vertex 71.72662038689687 7.2846543162139294 3.175
    vertex 71.39783837176321 7.032371002839794 0.0
    vertex 71.72662038689687 7.2846543162139294 0.0
  endloop
endfacet
facet normal 0.608761429008685 -0.7933533402912626 0.0
  outer loop
    vertex 71.39783837176321 7.032371002839794 0.0
    vertex 71.72662038689687 7.2846543162139294 3.175
    vertex 71.39783837176321 7.032371002839794 3.175
  endloop
endfacet
facet normal 0.3826834323650868 -0.923879532511288 0.0
  outer loop
    vertex 71.39783837176321 7.032371002839794 3.175
    vertex 71.01496360586346 6.873779082113691 0.0
    vertex 71.39783837176321 7.032371002839794 0.0
  endloop
endfacet
facet normal 0.3826834323650868 -0.923879532511288 0.0
  outer loop
    vertex 71.01496360586346 6.873779082113691 0.0
    vertex 71.39783837176321 7.032371002839794 3.175
    vertex 71.01496360586346 6.873779082113691 3.175
  endloop
endfacet
facet normal 0.13052619222006423 -0.9914448613738087 0.0
  outer loop
    vertex 71.01496360586346 6.873779082113691 3.175
    vertex 70.60408837176321 6.819686331347583 0.0
    vertex 71.01496360586346 6.873779082113691 0.0
  endloop
endfacet
facet normal 0.13052619222006423 -0.9914448613738087 0.0
  outer loop
    vertex 70.60408837176321 6.819686331347583 0.0
    vertex 71.01496360586346 6.873779082113691 3.175
    vertex 70.60408837176321 6.819686331347583 3.175
  endloop
endfacet
facet normal -0.0 -1.0 -0.0
  outer loop
    vertex 70.60408837176321 6.819686331347583 3.175
    vertex 13.454088371763218 6.819686331347583 0.0
    vertex 70.60408837176321 6.819686331347583 0.0
  endloop
endfacet
facet normal -0.0 -1.0 -0.0
  outer loop
    vertex 13.454088371763218 6.819686331347583 0.0
    vertex 70.60408837176321 6.819686331347583 3.175
    vertex 13.454088371763218 6.819686331347583 3.175
  endloop
endfacet
facet normal -0.13052619222006423 -0.9914448613738087 -0.0
  outer loop
    vertex 13.454088371763218 6.819686331347583 3.175
    vertex 13.04321313766298 6.873779082113691 0.0
    vertex 13.454088371763218 6.819686331347583 0.0
  endloop
endfacet
facet normal -0.13052619222006423 -0.9914448613738087 -0.0
  outer loop
    vertex 13.04321313766298 6.873779082113691 0.0
    vertex 13.454088371763218 6.819686331347583 3.175
    vertex 13.04321313766298 6.873779082113691 3.175
  endloop
endfacet
facet normal -0.3826834323650868 -0.923879532511288 -0.0
  outer loop
    vertex 13.04321313766298 6.873779082113691 3.175
    vertex 12.660338371763219 7.032371002839794 0.0
    vertex 13.04321313766298 6.873779082113691 0.0
  endloop
endfacet
facet normal -0.3826834323650868 -0.923879532511288 -0.0
  outer loop
    vertex 12.660338371763219 7.032371002839794 0.0
    vertex 13.04321313766298 6.873779082113691 3.175
    vertex 12.660338371763219 7.032371002839794 3.175
  endloop
endfacet
facet normal -0.608761429008685 -0.7933533402912626 -0.0
  outer loop
    vertex 12.660338371763219 7.032371002839794 3.175
    vertex 12.331556356629566 7.2846543162139294 0.0
    vertex 12.660338371763219 7.032371002839794 0.0
  endloop
endfacet
facet normal -0.608761429008685 -0.7933533402912626 -0.0
  outer loop
    vertex 12.331556356629566 7.2846543162139294 0.0
    vertex 12.660338371763219 7.032371002839794 3.175
    vertex 12.331556356629566 7.2846543162139294 3.175
  endloop
endfacet
facet normal -0.7933533402912364 -0.6087614290087192 -0.0
  outer loop
    vertex 12.079273043255407 7.613436331347583 3.175
    vertex 12.331556356629566 7.2846543162139294 0.0
    vertex 12.331556356629566 7.2846543162139294 3.175
  endloop
endfacet
facet normal -0.7933533402912364 -0.6087614290087192 -0.0
  outer loop
    vertex 12.331556356629566 7.2846543162139294 0.0
    vertex 12.079273043255407 7.613436331347583 3.175
    vertex 12.079273043255407 7.613436331347583 0.0
  endloop
endfacet
facet normal -0.9238795325112993 -0.3826834323650596 -0.0
  outer loop
    vertex 11.920681122529325 7.996311097247321 3.175
    vertex 12.079273043255407 7.613436331347583 0.0
    vertex 12.079273043255407 7.613436331347583 3.175
  endloop
endfacet
facet normal -0.9238795325112993 -0.3826834323650596 -0.0
  outer loop
    vertex 12.079273043255407 7.613436331347583 0.0
    vertex 11.920681122529325 7.996311097247321 3.175
    vertex 11.920681122529325 7.996311097247321 0.0
  endloop
endfacet
facet normal -0.9914448613738098 -0.1305261922200572 -0.0
  outer loop
    vertex 11.866588371763218 8.407186331347583 3.175
    vertex 11.920681122529325 7.996311097247321 0.0
    vertex 11.920681122529325 7.996311097247321 3.175
  endloop
endfacet
facet normal -0.9914448613738098 -0.1305261922200572 -0.0
  outer loop
    vertex 11.920681122529325 7.996311097247321 0.0
    vertex 11.866588371763218 8.407186331347583 3.175
    vertex 11.866588371763218 8.407186331347583 0.0
  endloop
endfacet
facet normal -1.0 0.0 0.0
  outer loop
    vertex 11.866588371763218 46.50718633134758 3.175
    vertex 11.866588371763218 8.407186331347583 0.0
    vertex 11.866588371763218 8.407186331347583 3.175
  endloop
endfacet
facet normal -1.0 0.0 0.0
  outer loop
    vertex 11.866588371763218 8.407186331347583 0.0
    vertex 11.866588371763218 46.50718633134758 3.175
    vertex 11.866588371763218 46.50718633134758 0.0
  endloop
endfacet
facet normal -0.9914448613738098 0.1305261922200572 0.0
  outer loop
    vertex 11.920681122529325 46.91806156544784 3.175
    vertex 11.866588371763218 46.50718633134758 0.0
    vertex 11.866588371763218 46.50718633134758 3.175
  endloop
endfacet
facet normal -0.9914448613738098 0.1305261922200572 0.0
  outer loop
    vertex 11.866588371763218 46.50718633134758 0.0
    vertex 11.920681122529325 46.91806156544784 3.175
    vertex 11.920681122529325 46.91806156544784 0.0
  endloop
endfacet
facet normal -0.9238795325112993 0.3826834323650596 0.0
  outer loop
    vertex 12.079273043255407 47.30093633134758 3.175
    vertex 11.920681122529325 46.91806156544784 0.0
    vertex 11.920681122529325 46.91806156544784 3.175
  endloop
endfacet
facet normal -0.9238795325112993 0.3826834323650596 0.0
  outer loop
    vertex 11.920681122529325 46.91806156544784 0.0
    vertex 12.079273043255407 47.30093633134758 3.175
    vertex 12.079273043255407 47.30093633134758 0.0
  endloop
endfacet
facet normal -0.7933533402912364 0.6087614290087192 0.0
  outer loop
    vertex 12.331556356629566 47.62971834648123 3.175
    vertex 12.079273043255407 47.30093633134758 0.0
    vertex 12.079273043255407 47.30093633134758 3.175
  endloop
endfacet
facet normal -0.7933533402912364 0.6087614290087192 0.0
  outer loop
    vertex 12.079273043255407 47.30093633134758 0.0
    vertex 12.331556356629566 47.62971834648123 3.175
    vertex 12.331556356629566 47.62971834648123 0.0
  endloop
endfacet
facet normal -0.608761429008685 0.7933533402912626 0.0
  outer loop
    vertex 12.331556356629566 47.62971834648123 3.175
    vertex 12.660338371763219 47.88200165985537 0.0
    vertex 12.331556356629566 47.62971834648123 0.0
  endloop
endfacet
facet normal -0.608761429008685 0.7933533402912626 0.0
  outer loop
    vertex 12.660338371763219 47.88200165985537 0.0
    vertex 12.331556356629566 47.62971834648123 3.175
    vertex 12.660338371763219 47.88200165985537 3.175
  endloop
endfacet
facet normal -0.3826834323650868 0.923879532511288 0.0
  outer loop
    vertex 12.660338371763219 47.88200165985537 3.175
    vertex 13.04321313766298 48.04059358058147 0.0
    vertex 12.660338371763219 47.88200165985537 0.0
  endloop
endfacet
facet normal -0.3826834323650868 0.923879532511288 0.0
  outer loop
    vertex 13.04321313766298 48.04059358058147 0.0
    vertex 12.660338371763219 47.88200165985537 3.175
    vertex 13.04321313766298 48.04059358058147 3.175
  endloop
endfacet
facet normal -0.13052619222006423 0.9914448613738087 0.0
  outer loop
    vertex 13.04321313766298 48.04059358058147 3.175
    vertex 13.454088371763218 48.09468633134758 0.0
    vertex 13.04321313766298 48.04059358058147 0.0
  endloop
endfacet
facet normal -0.13052619222006423 0.9914448613738087 0.0
  outer loop
    vertex 13.454088371763218 48.09468633134758 0.0
    vertex 13.04321313766298 48.04059358058147 3.175
    vertex 13.454088371763218 48.09468633134758 3.175
  endloop
endfacet
facet normal 0.0 1.0 0.0
  outer loop
    vertex 13.454088371763218 48.09468633134758 3.175
    vertex 154.7415883717632 48.09468633134758 0.0
    vertex 13.454088371763218 48.09468633134758 0.0
  endloop
endfacet
facet normal 0.0 1.0 0.0
  outer loop
    vertex 154.7415883717632 48.09468633134758 0.0
    vertex 13.454088371763218 48.09468633134758 3.175
    vertex 154.7415883717632 48.09468633134758 3.175
  endloop
endfacet
facet normal 0.13052619222006423 0.9914448613738087 0.0
  outer loop
    vertex 154.7415883717632 48.09468633134758 3.175
    vertex 155.15246360586346 48.04059358058147 0.0
    vertex 154.7415883717632 48.09468633134758 0.0
  endloop
endfacet
facet normal 0.13052619222006423 0.9914448613738087 0.0
  outer loop
    vertex 155.15246360586346 48.04059358058147 0.0
    vertex 154.7415883717632 48.09468633134758 3.175
    vertex 155.15246360586346 48.04059358058147 3.175
  endloop
endfacet
facet normal 0.3826834323650868 0.923879532511288 0.0
  outer loop
    vertex 155.15246360586346 48.04059358058147 3.175
    vertex 155.5353383717632 47.88200165985537 0.0
    vertex 155.15246360586346 48.04059358058147 0.0
  endloop
endfacet
facet normal 0.3826834323650868 0.923879532511288 0.0
  outer loop
    vertex 155.5353383717632 47.88200165985537 0.0
    vertex 155.15246360586346 48.04059358058147 3.175
    vertex 155.5353383717632 47.88200165985537 3.175
  endloop
endfacet
facet normal 0.608761429008685 0.7933533402912626 0.0
  outer loop
    vertex 155.5353383717632 47.88200165985537 3.175
    vertex 155.86412038689687 47.62971834648123 0.0
    vertex 155.5353383717632 47.88200165985537 0.0
  endloop
endfacet
facet normal 0.608761429008685 0.7933533402912626 0.0
  outer loop
    vertex 155.86412038689687 47.62971834648123 0.0
    vertex 155.5353383717632 47.88200165985537 3.175
    vertex 155.86412038689687 47.62971834648123 3.175
  endloop
endfacet
facet normal 0.7933533402912364 0.6087614290087192 0.0
  outer loop
    vertex 155.86412038689687 47.62971834648123 0.0
    vertex 156.11640370027104 47.30093633134758 3.175
    vertex 156.11640370027104 47.30093633134758 0.0
  endloop
endfacet
facet normal 0.7933533402912364 0.6087614290087192 0.0
  outer loop
    vertex 156.11640370027104 47.30093633134758 3.175
    vertex 155.86412038689687 47.62971834648123 0.0
    vertex 155.86412038689687 47.62971834648123 3.175
  endloop
endfacet
facet normal 0.9238795325112993 0.3826834323650596 0.0
  outer loop
    vertex 156.11640370027104 47.30093633134758 0.0
    vertex 156.2749956209971 46.91806156544784 3.175
    vertex 156.2749956209971 46.91806156544784 0.0
  endloop
endfacet
facet normal 0.9238795325112993 0.3826834323650596 0.0
  outer loop
    vertex 156.2749956209971 46.91806156544784 3.175
    vertex 156.11640370027104 47.30093633134758 0.0
    vertex 156.11640370027104 47.30093633134758 3.175
  endloop
endfacet
facet normal 0.9914448613738098 0.1305261922200572 0.0
  outer loop
    vertex 156.2749956209971 46.91806156544784 0.0
    vertex 156.32908837176322 46.50718633134758 3.175
    vertex 156.32908837176322 46.50718633134758 0.0
  endloop
endfacet
facet normal 0.9914448613738098 0.1305261922200572 0.0
  outer loop
    vertex 156.32908837176322 46.50718633134758 3.175
    vertex 156.2749956209971 46.91806156544784 0.0
    vertex 156.2749956209971 46.91806156544784 3.175
  endloop
endfacet
facet normal 1.0 0.0 0.0
  outer loop
    vertex 156.32908837176322 46.50718633134758 0.0
    vertex 156.32908837176322 36.982186331347584 3.175
    vertex 156.32908837176322 36.982186331347584 0.0
  endloop
endfacet
facet normal 1.0 0.0 0.0
  outer loop
    vertex 156.32908837176322 36.982186331347584 3.175
    vertex 156.32908837176322 46.50718633134758 0.0
    vertex 156.32908837176322 46.50718633134758 3.175
  endloop
endfacet
facet normal 0.9914448613738098 -0.1305261922200572 0.0
  outer loop
    vertex 156.32908837176322 36.982186331347584 0.0
    vertex 156.2749956209971 36.57131109724732 3.175
    vertex 156.2749956209971 36.57131109724732 0.0
  endloop
endfacet
facet normal 0.9914448613738098 -0.1305261922200572 0.0
  outer loop
    vertex 156.2749956209971 36.57131109724732 3.175
    vertex 156.32908837176322 36.982186331347584 0.0
    vertex 156.32908837176322 36.982186331347584 3.175
  endloop
endfacet
facet normal 0.9238795325112993 -0.3826834323650596 0.0
  outer loop
    vertex 156.2749956209971 36.57131109724732 0.0
    vertex 156.11640370027104 36.18843633134758 3.175
    vertex 156.11640370027104 36.18843633134758 0.0
  endloop
endfacet
facet normal 0.9238795325112993 -0.3826834323650596 0.0
  outer loop
    vertex 156.11640370027104 36.18843633134758 3.175
    vertex 156.2749956209971 36.57131109724732 0.0
    vertex 156.2749956209971 36.57131109724732 3.175
  endloop
endfacet
facet normal 0.7933533402912364 -0.6087614290087192 0.0
  outer loop
    vertex 156.11640370027104 36.18843633134758 0.0
    vertex 155.86412038689687 35.85965431621393 3.175
    vertex 155.86412038689687 35.85965431621393 0.0
  endloop
endfacet
facet normal 0.7933533402912364 -0.6087614290087192 0.0
  outer loop
    vertex 155.86412038689687 35.85965431621393 3.175
    vertex 156.11640370027104 36.18843633134758 0.0
    vertex 156.11640370027104 36.18843633134758 3.175
  endloop
endfacet
facet normal 0.608761429008685 -0.7933533402912626 0.0
  outer loop
    vertex 155.86412038689687 35.85965431621393 3.175
    vertex 155.5353383717632 35.60737100283979 0.0
    vertex 155.86412038689687 35.85965431621393 0.0
  endloop
endfacet
facet normal 0.608761429008685 -0.7933533402912626 0.0
  outer loop
    vertex 155.5353383717632 35.60737100283979 0.0
    vertex 155.86412038689687 35.85965431621393 3.175
    vertex 155.5353383717632 35.60737100283979 3.175
  endloop
endfacet
facet normal 0.3826834323650868 -0.923879532511288 0.0
  outer loop
    vertex 155.5353383717632 35.60737100283979 3.175
    vertex 155.15246360586346 35.44877908211369 0.0
    vertex 155.5353383717632 35.60737100283979 0.0
  endloop
endfacet
facet normal 0.3826834323650868 -0.923879532511288 0.0
  outer loop
    vertex 155.15246360586346 35.44877908211369 0.0
    vertex 155.5353383717632 35.60737100283979 3.175
    vertex 155.15246360586346 35.44877908211369 3.175
  endloop
endfacet
facet normal 0.13052619222006423 -0.9914448613738087 0.0
  outer loop
    vertex 155.15246360586346 35.44877908211369 3.175
    vertex 154.7415883717632 35.39468633134758 0.0
    vertex 155.15246360586346 35.44877908211369 0.0
  endloop
endfacet
facet normal 0.13052619222006423 -0.9914448613738087 0.0
  outer loop
    vertex 154.7415883717632 35.39468633134758 0.0
    vertex 155.15246360586346 35.44877908211369 3.175
    vertex 154.7415883717632 35.39468633134758 3.175
  endloop
endfacet
facet normal -0.0 -1.0 -0.0
  outer loop
    vertex 154.7415883717632 35.39468633134758 3.175
    vertex 73.77908837176321 35.39468633134758 0.0
    vertex 154.7415883717632 35.39468633134758 0.0
  endloop
endfacet
facet normal -0.0 -1.0 -0.0
  outer loop
    vertex 73.77908837176321 35.39468633134758 0.0
    vertex 154.7415883717632 35.39468633134758 3.175
    vertex 73.77908837176321 35.39468633134758 3.175
  endloop
endfacet
facet normal 1.0 0.0 0.0
  outer loop
    vertex 18.21658837176322 40.15718633134758 0.0
    vertex 18.21658837176322 14.757186331347583 3.175
    vertex 18.21658837176322 14.757186331347583 0.0
  endloop
endfacet
facet normal 1.0 0.0 0.0
  outer loop
    vertex 18.21658837176322 14.757186331347583 3.175
    vertex 18.21658837176322 40.15718633134758 0.0
    vertex 18.21658837176322 40.15718633134758 3.175
  endloop
endfacet
facet normal 0.9914448613738098 0.1305261922200572 0.0
  outer loop
    vertex 18.21658837176322 14.757186331347583 0.0
    vertex 18.270681122529325 14.346311097247321 3.175
    vertex 18.270681122529325 14.346311097247321 0.0
  endloop
endfacet
facet normal 0.9914448613738098 0.1305261922200572 0.0
  outer loop
    vertex 18.270681122529325 14.346311097247321 3.175
    vertex 18.21658837176322 14.757186331347583 0.0
    vertex 18.21658837176322 14.757186331347583 3.175
  endloop
endfacet
facet normal 0.9238795325112993 0.3826834323650596 0.0
  outer loop
    vertex 18.270681122529325 14.346311097247321 0.0
    vertex 18.429273043255407 13.963436331347582 3.175
    vertex 18.429273043255407 13.963436331347582 0.0
  endloop
endfacet
facet normal 0.9238795325112993 0.3826834323650596 0.0
  outer loop
    vertex 18.429273043255407 13.963436331347582 3.175
    vertex 18.270681122529325 14.346311097247321 0.0
    vertex 18.270681122529325 14.346311097247321 3.175
  endloop
endfacet
facet normal 0.7933533402912364 0.6087614290087192 0.0
  outer loop
    vertex 18.429273043255407 13.963436331347582 0.0
    vertex 18.681556356629564 13.634654316213929 3.175
    vertex 18.681556356629564 13.634654316213929 0.0
  endloop
endfacet
facet normal 0.7933533402912364 0.6087614290087192 0.0
  outer loop
    vertex 18.681556356629564 13.634654316213929 3.175
    vertex 18.429273043255407 13.963436331347582 0.0
    vertex 18.429273043255407 13.963436331347582 3.175
  endloop
endfacet
facet normal 0.608761429008685 0.7933533402912626 0.0
  outer loop
    vertex 18.681556356629564 13.634654316213929 3.175
    vertex 19.01033837176322 13.382371002839793 0.0
    vertex 18.681556356629564 13.634654316213929 0.0
  endloop
endfacet
facet normal 0.608761429008685 0.7933533402912626 0.0
  outer loop
    vertex 19.01033837176322 13.382371002839793 0.0
    vertex 18.681556356629564 13.634654316213929 3.175
    vertex 19.01033837176322 13.382371002839793 3.175
  endloop
endfacet
facet normal 0.3826834323650868 0.923879532511288 0.0
  outer loop
    vertex 19.01033837176322 13.382371002839793 3.175
    vertex 19.39321313766298 13.22377908211369 0.0
    vertex 19.01033837176322 13.382371002839793 0.0
  endloop
endfacet
facet normal 0.3826834323650868 0.923879532511288 0.0
  outer loop
    vertex 19.39321313766298 13.22377908211369 0.0
    vertex 19.01033837176322 13.382371002839793 3.175
    vertex 19.39321313766298 13.22377908211369 3.175
  endloop
endfacet
facet normal 0.13052619222006423 0.9914448613738087 0.0
  outer loop
    vertex 19.39321313766298 13.22377908211369 3.175
    vertex 19.804088371763218 13.169686331347583 0.0
    vertex 19.39321313766298 13.22377908211369 0.0
  endloop
endfacet
facet normal 0.13052619222006423 0.9914448613738087 0.0
  outer loop
    vertex 19.804088371763218 13.169686331347583 0.0
    vertex 19.39321313766298 13.22377908211369 3.175
    vertex 19.804088371763218 13.169686331347583 3.175
  endloop
endfacet
facet normal 0.0 1.0 0.0
  outer loop
    vertex 19.804088371763218 13.169686331347583 3.175
    vertex 64.25408837176322 13.169686331347583 0.0
    vertex 19.804088371763218 13.169686331347583 0.0
  endloop
endfacet
facet normal 0.0 1.0 0.0
  outer loop
    vertex 64.25408837176322 13.169686331347583 0.0
    vertex 19.804088371763218 13.169686331347583 3.175
    vertex 64.25408837176322 13.169686331347583 3.175
  endloop
endfacet
facet normal -0.13052619222006423 0.9914448613738087 0.0
  outer loop
    vertex 64.25408837176322 13.169686331347583 3.175
    vertex 64.66496360586345 13.22377908211369 0.0
    vertex 64.25408837176322 13.169686331347583 0.0
  endloop
endfacet
facet normal -0.13052619222006423 0.9914448613738087 0.0
  outer loop
    vertex 64.66496360586345 13.22377908211369 0.0
    vertex 64.25408837176322 13.169686331347583 3.175
    vertex 64.66496360586345 13.22377908211369 3.175
  endloop
endfacet
facet normal -0.3826834323650868 0.923879532511288 0.0
  outer loop
    vertex 64.66496360586345 13.22377908211369 3.175
    vertex 65.04783837176322 13.382371002839793 0.0
    vertex 64.66496360586345 13.22377908211369 0.0
  endloop
endfacet
facet normal -0.3826834323650868 0.923879532511288 0.0
  outer loop
    vertex 65.04783837176322 13.382371002839793 0.0
    vertex 64.66496360586345 13.22377908211369 3.175
    vertex 65.04783837176322 13.382371002839793 3.175
  endloop
endfacet
facet normal -0.608761429008685 0.7933533402912626 0.0
  outer loop
    vertex 65.04783837176322 13.382371002839793 3.175
    vertex 65.37662038689687 13.634654316213929 0.0
    vertex 65.04783837176322 13.382371002839793 0.0
  endloop
endfacet
facet normal -0.608761429008685 0.7933533402912626 0.0
  outer loop
    vertex 65.37662038689687 13.634654316213929 0.0
    vertex 65.04783837176322 13.382371002839793 3.175
    vertex 65.37662038689687 13.634654316213929 3.175
  endloop
endfacet
facet normal -0.7933533402912364 0.6087614290087192 0.0
  outer loop
    vertex 65.62890370027102 13.963436331347582 3.175
    vertex 65.37662038689687 13.634654316213929 0.0
    vertex 65.37662038689687 13.634654316213929 3.175
  endloop
endfacet
facet normal -0.7933533402912364 0.6087614290087192 0.0
  outer loop
    vertex 65.37662038689687 13.634654316213929 0.0
    vertex 65.62890370027102 13.963436331347582 3.175
    vertex 65.62890370027102 13.963436331347582 0.0
  endloop
endfacet
facet normal -0.9238795325112993 0.3826834323650596 0.0
  outer loop
    vertex 65.7874956209971 14.346311097247321 3.175
    vertex 65.62890370027102 13.963436331347582 0.0
    vertex 65.62890370027102 13.963436331347582 3.175
  endloop
endfacet
facet normal -0.9238795325112993 0.3826834323650596 0.0
  outer loop
    vertex 65.62890370027102 13.963436331347582 0.0
    vertex 65.7874956209971 14.346311097247321 3.175
    vertex 65.7874956209971 14.346311097247321 0.0
  endloop
endfacet
facet normal -0.9914448613738098 0.1305261922200572 0.0
  outer loop
    vertex 65.84158837176321 14.757186331347583 3.175
    vertex 65.7874956209971 14.346311097247321 0.0
    vertex 65.7874956209971 14.346311097247321 3.175
  endloop
endfacet
facet normal -0.9914448613738098 0.1305261922200572 0.0
  outer loop
    vertex 65.7874956209971 14.346311097247321 0.0
    vertex 65.84158837176321 14.757186331347583 3.175
    vertex 65.84158837176321 14.757186331347583 0.0
  endloop
endfacet
facet normal -1.0 0.0 0.0
  outer loop
    vertex 65.84158837176321 40.15718633134758 3.175
    vertex 65.84158837176321 14.757186331347583 0.0
    vertex 65.84158837176321 14.757186331347583 3.175
  endloop
endfacet
facet normal -1.0 0.0 0.0
  outer loop
    vertex 65.84158837176321 14.757186331347583 0.0
    vertex 65.84158837176321 40.15718633134758 3.175
    vertex 65.84158837176321 40.15718633134758 0.0
  endloop
endfacet
facet normal -0.9914448613738098 -0.1305261922200572 -0.0
  outer loop
    vertex 65.7874956209971 40.56806156544784 3.175
    vertex 65.84158837176321 40.15718633134758 0.0
    vertex 65.84158837176321 40.15718633134758 3.175
  endloop
endfacet
facet normal -0.9914448613738098 -0.1305261922200572 -0.0
  outer loop
    vertex 65.84158837176321 40.15718633134758 0.0
    vertex 65.7874956209971 40.56806156544784 3.175
    vertex 65.7874956209971 40.56806156544784 0.0
  endloop
endfacet
facet normal -0.9238795325112993 -0.3826834323650596 -0.0
  outer loop
    vertex 65.62890370027102 40.950936331347584 3.175
    vertex 65.7874956209971 40.56806156544784 0.0
    vertex 65.7874956209971 40.56806156544784 3.175
  endloop
endfacet
facet normal -0.9238795325112993 -0.3826834323650596 -0.0
  outer loop
    vertex 65.7874956209971 40.56806156544784 0.0
    vertex 65.62890370027102 40.950936331347584 3.175
    vertex 65.62890370027102 40.950936331347584 0.0
  endloop
endfacet
facet normal -0.7933533402912364 -0.6087614290087192 -0.0
  outer loop
    vertex 65.37662038689687 41.27971834648123 3.175
    vertex 65.62890370027102 40.950936331347584 0.0
    vertex 65.62890370027102 40.950936331347584 3.175
  endloop
endfacet
facet normal -0.7933533402912364 -0.6087614290087192 -0.0
  outer loop
    vertex 65.62890370027102 40.950936331347584 0.0
    vertex 65.37662038689687 41.27971834648123 3.175
    vertex 65.37662038689687 41.27971834648123 0.0
  endloop
endfacet
facet normal -0.608761429008685 -0.7933533402912626 -0.0
  outer loop
    vertex 65.37662038689687 41.27971834648123 3.175
    vertex 65.04783837176322 41.53200165985537 0.0
    vertex 65.37662038689687 41.27971834648123 0.0
  endloop
endfacet
facet normal -0.608761429008685 -0.7933533402912626 -0.0
  outer loop
    vertex 65.04783837176322 41.53200165985537 0.0
    vertex 65.37662038689687 41.27971834648123 3.175
    vertex 65.04783837176322 41.53200165985537 3.175
  endloop
endfacet
facet normal -0.3826834323650868 -0.923879532511288 -0.0
  outer loop
    vertex 65.04783837176322 41.53200165985537 3.175
    vertex 64.66496360586345 41.69059358058147 0.0
    vertex 65.04783837176322 41.53200165985537 0.0
  endloop
endfacet
facet normal -0.3826834323650868 -0.923879532511288 -0.0
  outer loop
    vertex 64.66496360586345 41.69059358058147 0.0
    vertex 65.04783837176322 41.53200165985537 3.175
    vertex 64.66496360586345 41.69059358058147 3.175
  endloop
endfacet
facet normal -0.13052619222006423 -0.9914448613738087 -0.0
  outer loop
    vertex 64.66496360586345 41.69059358058147 3.175
    vertex 64.25408837176322 41.74468633134758 0.0
    vertex 64.66496360586345 41.69059358058147 0.0
  endloop
endfacet
facet normal -0.13052619222006423 -0.9914448613738087 -0.0
  outer loop
    vertex 64.25408837176322 41.74468633134758 0.0
    vertex 64.66496360586345 41.69059358058147 3.175
    vertex 64.25408837176322 41.74468633134758 3.175
  endloop
endfacet
facet normal -0.0 -1.0 -0.0
  outer loop
    vertex 64.25408837176322 41.74468633134758 3.175
    vertex 19.804088371763218 41.74468633134758 0.0
    vertex 64.25408837176322 41.74468633134758 0.0
  endloop
endfacet
facet normal -0.0 -1.0 -0.0
  outer loop
    vertex 19.804088371763218 41.74468633134758 0.0
    vertex 64.25408837176322 41.74468633134758 3.175
    vertex 19.804088371763218 41.74468633134758 3.175
  endloop
endfacet
facet normal 0.13052619222006423 -0.9914448613738087 0.0
  outer loop
    vertex 19.804088371763218 41.74468633134758 3.175
    vertex 19.39321313766298 41.69059358058147 0.0
    vertex 19.804088371763218 41.74468633134758 0.0
  endloop
endfacet
facet normal 0.13052619222006423 -0.9914448613738087 0.0
  outer loop
    vertex 19.39321313766298 41.69059358058147 0.0
    vertex 19.804088371763218 41.74468633134758 3.175
    vertex 19.39321313766298 41.69059358058147 3.175
  endloop
endfacet
facet normal 0.3826834323650868 -0.923879532511288 0.0
  outer loop
    vertex 19.39321313766298 41.69059358058147 3.175
    vertex 19.01033837176322 41.53200165985537 0.0
    vertex 19.39321313766298 41.69059358058147 0.0
  endloop
endfacet
facet normal 0.3826834323650868 -0.923879532511288 0.0
  outer loop
    vertex 19.01033837176322 41.53200165985537 0.0
    vertex 19.39321313766298 41.69059358058147 3.175
    vertex 19.01033837176322 41.53200165985537 3.175
  endloop
endfacet
facet normal 0.608761429008685 -0.7933533402912626 0.0
  outer loop
    vertex 19.01033837176322 41.53200165985537 3.175
    vertex 18.681556356629564 41.27971834648123 0.0
    vertex 19.01033837176322 41.53200165985537 0.0
  endloop
endfacet
facet normal 0.608761429008685 -0.7933533402912626 0.0
  outer loop
    vertex 18.681556356629564 41.27971834648123 0.0
    vertex 19.01033837176322 41.53200165985537 3.175
    vertex 18.681556356629564 41.27971834648123 3.175
  endloop
endfacet
facet normal 0.7933533402912364 -0.6087614290087192 0.0
  outer loop
    vertex 18.681556356629564 41.27971834648123 0.0
    vertex 18.429273043255407 40.950936331347584 3.175
    vertex 18.429273043255407 40.950936331347584 0.0
  endloop
endfacet
facet normal 0.7933533402912364 -0.6087614290087192 0.0
  outer loop
    vertex 18.429273043255407 40.950936331347584 3.175
    vertex 18.681556356629564 41.27971834648123 0.0
    vertex 18.681556356629564 41.27971834648123 3.175
  endloop
endfacet
facet normal 0.9238795325112993 -0.3826834323650596 0.0
  outer loop
    vertex 18.429273043255407 40.950936331347584 0.0
    vertex 18.270681122529325 40.56806156544784 3.175
    vertex 18.270681122529325 40.56806156544784 0.0
  endloop
endfacet
facet normal 0.9238795325112993 -0.3826834323650596 0.0
  outer loop
    vertex 18.270681122529325 40.56806156544784 3.175
    vertex 18.429273043255407 40.950936331347584 0.0
    vertex 18.429273043255407 40.950936331347584 3.175
  endloop
endfacet
facet normal 0.9914448613738098 -0.1305261922200572 0.0
  outer loop
    vertex 18.270681122529325 40.56806156544784 0.0
    vertex 18.21658837176322 40.15718633134758 3.175
    vertex 18.21658837176322 40.15718633134758 0.0
  endloop
endfacet
facet normal 0.9914448613738098 -0.1305261922200572 0.0
  outer loop
    vertex 18.21658837176322 40.15718633134758 3.175
    vertex 18.270681122529325 40.56806156544784 0.0
    vertex 18.270681122529325 40.56806156544784 3.175
  endloop
endfacet
facet normal 1.0 0.0 0.0
  outer loop
    vertex 73.77908837176321 44.91968633134758 0.0
    vertex 73.77908837176321 38.56968633134758 3.175
    vertex 73.77908837176321 38.56968633134758 0.0
  endloop
endfacet
facet normal 1.0 0.0 0.0
  outer loop
    vertex 73.77908837176321 38.56968633134758 3.175
    vertex 73.77908837176321 44.91968633134758 0.0
    vertex 73.77908837176321 44.91968633134758 3.175
  endloop
endfacet
facet normal 0.0 1.0 0.0
  outer loop
    vertex 73.77908837176321 38.56968633134758 3.175
    vertex 153.1540883717632 38.56968633134758 0.0
    vertex 73.77908837176321 38.56968633134758 0.0
  endloop
endfacet
facet normal 0.0 1.0 0.0
  outer loop
    vertex 153.1540883717632 38.56968633134758 0.0
    vertex 73.77908837176321 38.56968633134758 3.175
    vertex 153.1540883717632 38.56968633134758 3.175
  endloop
endfacet
facet normal -1.0 0.0 0.0
  outer loop
    vertex 153.1540883717632 44.91968633134758 3.175
    vertex 153.1540883717632 38.56968633134758 0.0
    vertex 153.1540883717632 38.56968633134758 3.175
  endloop
endfacet
facet normal -1.0 0.0 0.0
  outer loop
    vertex 153.1540883717632 38.56968633134758 0.0
    vertex 153.1540883717632 44.91968633134758 3.175
    vertex 153.1540883717632 44.91968633134758 0.0
  endloop
endfacet
facet normal -0.0 -1.0 -0.0
  outer loop
    vertex 153.1540883717632 44.91968633134758 3.175
    vertex 73.77908837176321 44.91968633134758 0.0
    vertex 153.1540883717632 44.91968633134758 0.0
  endloop
endfacet
facet normal -0.0 -1.0 -0.0
  outer loop
    vertex 73.77908837176321 44.91968633134758 0.0
    vertex 153.1540883717632 44.91968633134758 3.175
    vertex 73.77908837176321 44.91968633134758 3.175
  endloop
endfacet
endsolid Untitled-5cd1deb5
